<?xml version="1.0" encoding="utf-8"?>
<!-- Generator: Adobe Illustrator 17.0.2, SVG Export Plug-In . SVG Version: 6.00 Build 0)  -->
<!DOCTYPE svg PUBLIC "-//W3C//DTD SVG 1.1//EN" "http://www.w3.org/Graphics/SVG/1.1/DTD/svg11.dtd">
<svg version="1.1" id="Livello_1" xmlns="http://www.w3.org/2000/svg" xmlns:xlink="http://www.w3.org/1999/xlink" x="0px" y="0px"
	 width="320px" height="80px" viewBox="0 0 320 80" enable-background="new 0 0 320 80" xml:space="preserve">
<rect fill="#563D7C" width="320" height="80"/>
<g>
	<path fill="#FFFFFF" d="M39.127,20.051c1.866,0,3.567,0.164,5.104,0.494c1.537,0.329,2.854,0.869,3.952,1.619
		s1.948,1.747,2.552,2.99c0.604,1.244,0.906,2.781,0.906,4.61c0,1.976-0.449,3.622-1.345,4.939
		c-0.897,1.317-2.223,2.396-3.979,3.237c2.415,0.696,4.216,1.913,5.406,3.65c1.188,1.737,1.784,3.833,1.784,6.283
		c0,1.976-0.384,3.687-1.152,5.132c-0.769,1.445-1.803,2.625-3.101,3.539c-1.299,0.915-2.781,1.592-4.445,2.031
		c-1.665,0.438-3.375,0.658-5.131,0.658H20.687V20.051H39.127z M38.029,35.911c1.537,0,2.799-0.365,3.787-1.098
		c0.988-0.731,1.481-1.921,1.481-3.567c0-0.914-0.165-1.664-0.494-2.25c-0.329-0.585-0.769-1.043-1.317-1.372
		s-1.18-0.558-1.893-0.686s-1.455-0.192-2.223-0.192h-8.068v9.165H38.029z M38.523,52.54c0.841,0,1.646-0.082,2.415-0.247
		c0.769-0.165,1.445-0.439,2.031-0.823c0.585-0.384,1.051-0.905,1.399-1.564c0.347-0.658,0.521-1.499,0.521-2.524
		c0-2.012-0.568-3.447-1.701-4.308c-1.135-0.859-2.634-1.29-4.5-1.29h-9.385V52.54H38.523z"/>
	<path fill="#FFFFFF" d="M58.664,38.902c0.694-1.848,1.682-3.421,2.963-4.72c1.28-1.299,2.817-2.305,4.61-3.019
		c1.792-0.714,3.805-1.07,6.037-1.07c2.231,0,4.253,0.356,6.064,1.07c1.811,0.714,3.356,1.72,4.637,3.019
		c1.28,1.299,2.268,2.872,2.963,4.72c0.695,1.848,1.043,3.906,1.043,6.174c0,2.269-0.348,4.317-1.043,6.146
		c-0.695,1.83-1.683,3.395-2.963,4.692c-1.281,1.299-2.826,2.297-4.637,2.991c-1.812,0.694-3.833,1.043-6.064,1.043
		c-2.232,0-4.245-0.349-6.037-1.043c-1.793-0.694-3.33-1.692-4.61-2.991c-1.281-1.298-2.269-2.862-2.963-4.692
		c-0.696-1.829-1.043-3.878-1.043-6.146C57.621,42.809,57.969,40.75,58.664,38.902z M65.744,48.396
		c0.219,1.079,0.594,2.05,1.125,2.908c0.53,0.86,1.235,1.547,2.113,2.059c0.878,0.513,1.976,0.769,3.293,0.769
		c1.317,0,2.423-0.256,3.32-0.769c0.896-0.512,1.609-1.198,2.14-2.059c0.53-0.858,0.906-1.829,1.125-2.908
		c0.22-1.079,0.33-2.186,0.33-3.32c0-1.134-0.11-2.25-0.33-3.348c-0.219-1.098-0.595-2.066-1.125-2.908
		c-0.531-0.842-1.244-1.527-2.14-2.059c-0.897-0.529-2.003-0.796-3.32-0.796c-1.317,0-2.415,0.267-3.293,0.796
		c-0.878,0.531-1.583,1.217-2.113,2.059c-0.531,0.842-0.906,1.811-1.125,2.908c-0.22,1.098-0.33,2.214-0.33,3.348
		C65.414,46.211,65.524,47.317,65.744,48.396z"/>
	<path fill="#FFFFFF" d="M92.196,38.902c0.694-1.848,1.682-3.421,2.963-4.72c1.28-1.299,2.817-2.305,4.61-3.019
		c1.792-0.714,3.805-1.07,6.037-1.07c2.231,0,4.253,0.356,6.064,1.07c1.811,0.714,3.356,1.72,4.637,3.019
		c1.28,1.299,2.268,2.872,2.963,4.72c0.695,1.848,1.043,3.906,1.043,6.174c0,2.269-0.348,4.317-1.043,6.146
		c-0.695,1.83-1.683,3.395-2.963,4.692c-1.281,1.299-2.826,2.297-4.637,2.991c-1.812,0.694-3.833,1.043-6.064,1.043
		c-2.232,0-4.245-0.349-6.037-1.043c-1.793-0.694-3.33-1.692-4.61-2.991c-1.281-1.298-2.269-2.862-2.963-4.692
		c-0.696-1.829-1.043-3.878-1.043-6.146C91.153,42.809,91.5,40.75,92.196,38.902z M99.276,48.396
		c0.219,1.079,0.594,2.05,1.125,2.908c0.53,0.86,1.235,1.547,2.113,2.059c0.878,0.513,1.976,0.769,3.293,0.769
		c1.317,0,2.423-0.256,3.32-0.769c0.896-0.512,1.609-1.198,2.14-2.059c0.53-0.858,0.906-1.829,1.125-2.908
		c0.22-1.079,0.33-2.186,0.33-3.32c0-1.134-0.11-2.25-0.33-3.348c-0.219-1.098-0.595-2.066-1.125-2.908
		c-0.531-0.842-1.244-1.527-2.14-2.059c-0.897-0.529-2.003-0.796-3.32-0.796c-1.317,0-2.415,0.267-3.293,0.796
		c-0.878,0.531-1.583,1.217-2.113,2.059c-0.531,0.842-0.906,1.811-1.125,2.908c-0.22,1.098-0.33,2.214-0.33,3.348
		C98.946,46.211,99.056,47.317,99.276,48.396z"/>
	<path fill="#FFFFFF" d="M141.149,30.862v5.214h-5.708v14.049c0,1.317,0.219,2.195,0.658,2.635c0.439,0.438,1.317,0.658,2.634,0.658
		c0.439,0,0.859-0.018,1.263-0.055c0.402-0.036,0.786-0.091,1.152-0.165v6.037c-0.659,0.109-1.391,0.183-2.195,0.22
		c-0.805,0.036-1.591,0.055-2.36,0.055c-1.208,0-2.351-0.082-3.43-0.247c-1.08-0.164-2.03-0.484-2.854-0.96
		s-1.473-1.153-1.948-2.031c-0.476-0.878-0.714-2.03-0.714-3.457V36.076h-4.72v-5.214h4.72v-8.507h7.793v8.507H141.149z"/>
	<path fill="#FFFFFF" d="M157.833,20.051l9.164,26.946h0.11l8.671-26.946h12.129v39.185h-8.067v-27.77h-0.11l-9.604,27.77h-6.641
		l-9.604-27.495h-0.109v27.495h-8.068V20.051H157.833z"/>
	<path fill="#FFFFFF" d="M195.699,35.033c0.805-1.207,1.829-2.177,3.074-2.909c1.243-0.731,2.643-1.252,4.198-1.563
		c1.555-0.311,3.118-0.467,4.692-0.467c1.427,0,2.871,0.102,4.335,0.302c1.463,0.202,2.799,0.596,4.007,1.18
		c1.207,0.586,2.195,1.4,2.963,2.442c0.769,1.043,1.153,2.425,1.153,4.144v14.763c0,1.281,0.072,2.507,0.219,3.677
		c0.146,1.172,0.402,2.05,0.769,2.635h-7.902c-0.147-0.439-0.267-0.887-0.357-1.345c-0.092-0.457-0.155-0.924-0.191-1.399
		c-1.244,1.281-2.708,2.178-4.391,2.689c-1.684,0.512-3.402,0.769-5.159,0.769c-1.354,0-2.616-0.165-3.786-0.494
		c-1.172-0.329-2.195-0.842-3.074-1.537c-0.878-0.694-1.563-1.572-2.058-2.634c-0.494-1.061-0.741-2.323-0.741-3.787
		c0-1.609,0.283-2.937,0.851-3.979c0.567-1.043,1.299-1.875,2.195-2.497s1.921-1.088,3.073-1.399
		c1.153-0.311,2.314-0.558,3.485-0.741c1.171-0.183,2.323-0.329,3.457-0.438c1.134-0.11,2.141-0.274,3.019-0.494
		c0.879-0.22,1.573-0.539,2.086-0.961c0.512-0.42,0.749-1.033,0.713-1.838c0-0.842-0.137-1.51-0.411-2.003
		c-0.274-0.494-0.641-0.879-1.098-1.153c-0.458-0.274-0.988-0.457-1.592-0.549c-0.604-0.091-1.254-0.137-1.948-0.137
		c-1.536,0-2.744,0.329-3.622,0.987c-0.878,0.659-1.391,1.757-1.536,3.293h-7.793C194.437,37.759,194.894,36.24,195.699,35.033z
		 M211.094,46.037c-0.494,0.164-1.024,0.302-1.592,0.411c-0.567,0.11-1.162,0.201-1.783,0.274c-0.623,0.074-1.244,0.164-1.866,0.274
		c-0.586,0.109-1.162,0.256-1.729,0.438c-0.567,0.184-1.062,0.431-1.482,0.741c-0.421,0.312-0.759,0.705-1.015,1.18
		c-0.257,0.477-0.385,1.08-0.385,1.812c0,0.695,0.128,1.281,0.385,1.756c0.256,0.477,0.604,0.851,1.043,1.125
		c0.438,0.274,0.95,0.467,1.536,0.576c0.585,0.11,1.188,0.165,1.812,0.165c1.536,0,2.725-0.256,3.567-0.769
		c0.841-0.512,1.463-1.125,1.865-1.838c0.402-0.714,0.649-1.436,0.741-2.168c0.091-0.731,0.137-1.317,0.137-1.757v-2.908
		C211.999,45.644,211.588,45.872,211.094,46.037z"/>
	<path fill="#FFFFFF" d="M233.566,30.862v3.951h0.165c0.988-1.646,2.269-2.844,3.842-3.595c1.572-0.749,3.183-1.125,4.829-1.125
		c2.086,0,3.796,0.284,5.132,0.851c1.335,0.567,2.387,1.354,3.155,2.36c0.769,1.007,1.308,2.231,1.619,3.677
		c0.311,1.445,0.467,3.046,0.467,4.802v17.452h-7.793V43.21c0-2.341-0.366-4.088-1.098-5.24c-0.732-1.153-2.031-1.729-3.896-1.729
		c-2.123,0-3.659,0.632-4.61,1.894c-0.952,1.263-1.427,3.339-1.427,6.229v14.872h-7.793V30.862H233.566z"/>
	<path fill="#FFFFFF" d="M258.921,26.472v-6.421h7.794v6.421H258.921z M266.715,30.862v28.373h-7.794V30.862H266.715z"/>
	<path fill="#FFFFFF" d="M273.903,35.033c0.805-1.207,1.829-2.177,3.074-2.909c1.243-0.731,2.643-1.252,4.198-1.563
		c1.555-0.311,3.118-0.467,4.692-0.467c1.427,0,2.871,0.102,4.335,0.302c1.463,0.202,2.799,0.596,4.007,1.18
		c1.207,0.586,2.195,1.4,2.963,2.442c0.769,1.043,1.153,2.425,1.153,4.144v14.763c0,1.281,0.072,2.507,0.219,3.677
		c0.146,1.172,0.402,2.05,0.769,2.635h-7.902c-0.147-0.439-0.267-0.887-0.357-1.345c-0.092-0.457-0.155-0.924-0.191-1.399
		c-1.244,1.281-2.708,2.178-4.391,2.689c-1.684,0.512-3.402,0.769-5.159,0.769c-1.354,0-2.616-0.165-3.786-0.494
		c-1.172-0.329-2.195-0.842-3.074-1.537c-0.878-0.694-1.563-1.572-2.058-2.634c-0.494-1.061-0.741-2.323-0.741-3.787
		c0-1.609,0.283-2.937,0.851-3.979c0.567-1.043,1.299-1.875,2.195-2.497s1.921-1.088,3.073-1.399
		c1.153-0.311,2.314-0.558,3.485-0.741c1.171-0.183,2.323-0.329,3.457-0.438c1.134-0.11,2.141-0.274,3.019-0.494
		c0.879-0.22,1.573-0.539,2.086-0.961c0.512-0.42,0.749-1.033,0.713-1.838c0-0.842-0.137-1.51-0.411-2.003
		c-0.274-0.494-0.641-0.879-1.098-1.153c-0.458-0.274-0.988-0.457-1.592-0.549c-0.604-0.091-1.254-0.137-1.948-0.137
		c-1.536,0-2.744,0.329-3.622,0.987c-0.878,0.659-1.391,1.757-1.536,3.293h-7.793C272.641,37.759,273.098,36.24,273.903,35.033z
		 M289.298,46.037c-0.494,0.164-1.024,0.302-1.592,0.411c-0.567,0.11-1.162,0.201-1.783,0.274c-0.623,0.074-1.244,0.164-1.866,0.274
		c-0.586,0.109-1.162,0.256-1.729,0.438c-0.567,0.184-1.062,0.431-1.482,0.741c-0.421,0.312-0.759,0.705-1.015,1.18
		c-0.257,0.477-0.385,1.08-0.385,1.812c0,0.695,0.128,1.281,0.385,1.756c0.256,0.477,0.604,0.851,1.043,1.125
		c0.438,0.274,0.95,0.467,1.536,0.576c0.585,0.11,1.188,0.165,1.812,0.165c1.536,0,2.725-0.256,3.567-0.769
		c0.841-0.512,1.463-1.125,1.865-1.838c0.402-0.714,0.649-1.436,0.741-2.168c0.091-0.731,0.137-1.317,0.137-1.757v-2.908
		C290.203,45.644,289.792,45.872,289.298,46.037z"/>
</g>
</svg>
